<svg xmlns="http://www.w3.org/2000/svg" version="1.1" xmlns:xlink="http://www.w3.org/1999/xlink" xmlns:svgjs="http://svgjs.dev/svgjs" viewBox="0 0 800 800"><defs><linearGradient x1="50%" y1="0%" x2="50%" y2="100%" id="nnneon-grad"><stop stop-color="#4B0082" stop-opacity="1" offset="0%"></stop><stop stop-color="#F88407" stop-opacity="1" offset="100%"></stop></linearGradient><filter id="nnneon-filter" x="-100%" y="-100%" width="400%" height="400%" filterUnits="objectBoundingBox" primitiveUnits="userSpaceOnUse" color-interpolation-filters="sRGB">
	<feGaussianBlur stdDeviation="17 11" x="0%" y="0%" width="100%" height="100%" in="SourceGraphic" edgeMode="none" result="blur"></feGaussianBlur></filter><filter id="nnneon-filter2" x="-100%" y="-100%" width="400%" height="400%" filterUnits="objectBoundingBox" primitiveUnits="userSpaceOnUse" color-interpolation-filters="sRGB">
	<feGaussianBlur stdDeviation="11 19" x="0%" y="0%" width="100%" height="100%" in="SourceGraphic" edgeMode="none" result="blur"></feGaussianBlur></filter></defs><g stroke-width="14.5" stroke="url(#nnneon-grad)" fill="none"><path d="M400.00001525878906 117.0987548828125L645.000030914131 258.54937360241036V541.4506110416062L400.00001525878906 682.901229761204L154.99999960344718 541.4506110416062V258.54937360241036L400.00001525878906 117.0987548828125Z " filter="url(#nnneon-filter)"></path><path d="M473.00001525878906 117.0987548828125L718.000030914131 258.54937360241036V541.4506110416062L473.00001525878906 682.901229761204L227.99999960344718 541.4506110416062V258.54937360241036L473.00001525878906 117.0987548828125Z " filter="url(#nnneon-filter2)" opacity="0.52"></path><path d="M327.00001525878906 117.0987548828125L572.000030914131 258.54937360241036V541.4506110416062L327.00001525878906 682.901229761204L81.99999960344718 541.4506110416062V258.54937360241036L327.00001525878906 117.0987548828125Z " filter="url(#nnneon-filter2)" opacity="0.52"></path><path d="M400.00001525878906 117.0987548828125L645.000030914131 258.54937360241036V541.4506110416062L400.00001525878906 682.901229761204L154.99999960344718 541.4506110416062V258.54937360241036L400.00001525878906 117.0987548828125Z "></path></g></svg>